<svg xmlns="http://www.w3.org/2000/svg" version="1.1" xmlns:xlink="http://www.w3.org/1999/xlink" xmlns:svgjs="http://svgjs.dev/svgjs" width="1440" height="600" preserveAspectRatio="none" viewBox="0 0 1440 600"><g mask="url(&quot;#SvgjsMask1082&quot;)" fill="none"><rect width="1440" height="600" x="0" y="0" fill="rgba(232, 156, 49, 1)"></rect><use xlink:href="#SvgjsG1089" transform="translate(0, 0)" fill="rgba(11, 40, 56, 1)"></use><use xlink:href="#SvgjsG1089" transform="translate(0, 518)" fill="rgba(11, 40, 56, 1)"></use><use xlink:href="#SvgjsG1089" transform="translate(518, 0)" fill="rgba(11, 40, 56, 1)"></use><use xlink:href="#SvgjsG1089" transform="translate(518, 518)" fill="rgba(11, 40, 56, 1)"></use><use xlink:href="#SvgjsG1089" transform="translate(1036, 0)" fill="rgba(11, 40, 56, 1)"></use><use xlink:href="#SvgjsG1089" transform="translate(1036, 518)" fill="rgba(11, 40, 56, 1)"></use></g><defs><mask id="SvgjsMask1082"><rect width="1440" height="600" fill="#ffffff"></rect></mask><g id="SvgjsG1083"><path d="M7.713 15.485C3.459 15.485 0 12.025 0 7.768 0 3.513 3.459 0.051 7.713 0.051S15.432 3.513 15.432 7.768c0 4.257-3.465 7.716-7.719 7.717z m0-1.91c3.201 0 5.81-2.604 5.81-5.809 0-3.199-2.61-5.807-5.81-5.807-3.202 0-5.804 2.609-5.804 5.807-0.001 3.206 2.602 5.809 5.804 5.809z"></path><path d="M7.753 8.787a0.574 0.574 0 0 1-0.554-0.042 0.578 0.578 0 0 1-0.259-0.399L6.931 3.862a0.58 0.58 0 0 1 1.162 0v3.478l2.975-1.4a0.578 0.578 0 0 1 0.773 0.275c0.138 0.292 0.011 0.637-0.276 0.774l-3.81 1.798z"></path></g><g id="SvgjsG1084"><path d="M6.837 0.883c0.002-1.183 1.782-1.183 1.784 0.033v4.953L15.558 10.047v1.826L8.654 9.605V13.307l1.593 1.25V16L7.787 15.242 5.32 16v-1.443l1.584-1.25V9.605L0 11.873V10.047l6.837-4.178V0.883z"></path></g><g id="SvgjsG1085"><path d="M8.067-0.016c-3.304 0-5.982 2.678-5.982 5.982 0 5.588 5.982 10.054 5.982 10.054s5.982-4.466 5.982-10.054c0-3.304-2.678-5.982-5.982-5.982z m0 8.625c-1.46 0-2.643-1.183-2.643-2.643S6.607 3.323 8.067 3.323s2.643 1.183 2.643 2.643S9.527 8.609 8.067 8.609z"></path></g><g id="SvgjsG1086"><path d="M4.012 2.502a1.248 1.248 0 0 0 1.251-1.251C5.264 0.562 4.704 0.002 4.012 0c-0.69 0.002-1.25 0.562-1.251 1.251 0.001 0.693 0.561 1.252 1.251 1.251zM0.735 6.942h1.097l0.663-2.422h0.274L2.115 6.942h3.891l-0.702-2.422h0.291l0.371 1.187c0.173 0.501 0.616 0.616 0.96 0.186l1.34-1.623c0.424-0.547-0.337-1.123-0.775-0.646l-0.799 0.953c0.001 0.015-0.154-0.524-0.154-0.525-0.182-0.636-0.787-1.264-1.695-1.267H3.132c-0.811 0.003-1.447 0.709-1.582 1.154L0.735 6.942z"></path><path d="M8.993 3.64V1.146h-1.122v2.494z m3.786-1.122c0.693-0.002 1.253-0.563 1.251-1.251a1.246 1.246 0 0 0-1.251-1.251c-0.689-0.002-1.249 0.558-1.251 1.251 0.002 0.689 0.562 1.249 1.251 1.251z m1.583 11.811v-6.91h0.92V3.649c0.001-0.493-0.441-0.872-1.074-0.872H11.27c-0.584 0-0.726 0.19-0.888 0.347L7.935 6.062c-0.496 0.615 0.389 1.333 0.888 0.759L11.181 4.036v10.309c-0.003 1.036 1.45 1.07 1.453 0.032v-5.853h0.282v5.821c0.004 1.032 1.447 1.036 1.445-0.016z"></path><path d="M16 8.646v-1.421H0v1.421z"></path></g><g id="SvgjsG1087"><path d="M2.796 14.654h-1.184C0.792 14.653 0.001 14.052 0 13.006c0 0 0.001-7.471 0-7.494 0.001-0.926 0.773-1.629 1.612-1.63h1.184v10.772z m7.448-10.754V2.352c0.004-0.558-0.49-0.914-1.093-0.91 0 0-2.303-0.004-2.294 0-0.6-0.004-1.103 0.352-1.102 0.91v1.548H3.597v10.772h8.823V3.9h-2.176z m-0.81 0H6.547v-1.593h2.887v1.593z m3.779 10.754h1.184c0.814-0.002 1.605-0.602 1.603-1.648 0 0 0.003-7.471 0-7.494 0.003-0.926-0.77-1.63-1.602-1.631h-1.184v10.772z"></path></g><g id="SvgjsG1088"><path d="M14.225 3.277L11.437 4.993v2.573h-1.067V4.125h-1.292V1.133h-3.432v4.899h-1.716v-1.683L2.536 3.492 1.142 4.349v3.003H0.07v7.507l15.442-0.001V9.282h-1.287V3.277z" fill-rule="evenodd"></path></g><g id="SvgjsG1089"><use xlink:href="#SvgjsG1083" transform="translate(0, 0) scale(1.4)" fill="rgba(11, 40, 56, 1)"></use><use xlink:href="#SvgjsG1084" transform="translate(0, 51.8) scale(1.4)" fill="rgba(11, 40, 56, 1)"></use><use xlink:href="#SvgjsG1085" transform="translate(0, 103.6) scale(1.4)" fill="rgba(11, 40, 56, 1)"></use><use xlink:href="#SvgjsG1086" transform="translate(0, 155.39999999999998) scale(1.4)" fill="rgba(11, 40, 56, 1)"></use><use xlink:href="#SvgjsG1087" transform="translate(0, 207.2) scale(1.4)" fill="rgba(11, 40, 56, 1)"></use><use xlink:href="#SvgjsG1088" transform="translate(0, 259) scale(1.4)" fill="rgba(11, 40, 56, 1)"></use><use xlink:href="#SvgjsG1083" transform="translate(0, 310.79999999999995) scale(1.4)" fill="rgba(11, 40, 56, 1)"></use><use xlink:href="#SvgjsG1084" transform="translate(0, 362.59999999999997) scale(1.4)" fill="rgba(11, 40, 56, 1)"></use><use xlink:href="#SvgjsG1085" transform="translate(0, 414.4) scale(1.4)" fill="rgba(11, 40, 56, 1)"></use><use xlink:href="#SvgjsG1086" transform="translate(0, 466.2) scale(1.4)" fill="rgba(11, 40, 56, 1)"></use><use xlink:href="#SvgjsG1084" transform="translate(51.8, 0) scale(1.4)" fill="rgba(11, 40, 56, 1)"></use><use xlink:href="#SvgjsG1085" transform="translate(51.8, 51.8) scale(1.4)" fill="rgba(11, 40, 56, 1)"></use><use xlink:href="#SvgjsG1086" transform="translate(51.8, 103.6) scale(1.4)" fill="rgba(11, 40, 56, 1)"></use><use xlink:href="#SvgjsG1087" transform="translate(51.8, 155.39999999999998) scale(1.4)" fill="rgba(11, 40, 56, 1)"></use><use xlink:href="#SvgjsG1088" transform="translate(51.8, 207.2) scale(1.4)" fill="rgba(11, 40, 56, 1)"></use><use xlink:href="#SvgjsG1083" transform="translate(51.8, 259) scale(1.4)" fill="rgba(11, 40, 56, 1)"></use><use xlink:href="#SvgjsG1084" transform="translate(51.8, 310.79999999999995) scale(1.4)" fill="rgba(11, 40, 56, 1)"></use><use xlink:href="#SvgjsG1085" transform="translate(51.8, 362.59999999999997) scale(1.4)" fill="rgba(11, 40, 56, 1)"></use><use xlink:href="#SvgjsG1086" transform="translate(51.8, 414.4) scale(1.4)" fill="rgba(11, 40, 56, 1)"></use><use xlink:href="#SvgjsG1087" transform="translate(51.8, 466.2) scale(1.4)" fill="rgba(11, 40, 56, 1)"></use><use xlink:href="#SvgjsG1085" transform="translate(103.6, 0) scale(1.4)" fill="rgba(11, 40, 56, 1)"></use><use xlink:href="#SvgjsG1086" transform="translate(103.6, 51.8) scale(1.4)" fill="rgba(11, 40, 56, 1)"></use><use xlink:href="#SvgjsG1087" transform="translate(103.6, 103.6) scale(1.4)" fill="rgba(11, 40, 56, 1)"></use><use xlink:href="#SvgjsG1088" transform="translate(103.6, 155.39999999999998) scale(1.4)" fill="rgba(11, 40, 56, 1)"></use><use xlink:href="#SvgjsG1083" transform="translate(103.6, 207.2) scale(1.4)" fill="rgba(11, 40, 56, 1)"></use><use xlink:href="#SvgjsG1084" transform="translate(103.6, 259) scale(1.4)" fill="rgba(11, 40, 56, 1)"></use><use xlink:href="#SvgjsG1085" transform="translate(103.6, 310.79999999999995) scale(1.4)" fill="rgba(11, 40, 56, 1)"></use><use xlink:href="#SvgjsG1086" transform="translate(103.6, 362.59999999999997) scale(1.4)" fill="rgba(11, 40, 56, 1)"></use><use xlink:href="#SvgjsG1087" transform="translate(103.6, 414.4) scale(1.4)" fill="rgba(11, 40, 56, 1)"></use><use xlink:href="#SvgjsG1088" transform="translate(103.6, 466.2) scale(1.4)" fill="rgba(11, 40, 56, 1)"></use><use xlink:href="#SvgjsG1086" transform="translate(155.39999999999998, 0) scale(1.4)" fill="rgba(11, 40, 56, 1)"></use><use xlink:href="#SvgjsG1087" transform="translate(155.39999999999998, 51.8) scale(1.4)" fill="rgba(11, 40, 56, 1)"></use><use xlink:href="#SvgjsG1088" transform="translate(155.39999999999998, 103.6) scale(1.4)" fill="rgba(11, 40, 56, 1)"></use><use xlink:href="#SvgjsG1083" transform="translate(155.39999999999998, 155.39999999999998) scale(1.4)" fill="rgba(11, 40, 56, 1)"></use><use xlink:href="#SvgjsG1084" transform="translate(155.39999999999998, 207.2) scale(1.4)" fill="rgba(11, 40, 56, 1)"></use><use xlink:href="#SvgjsG1085" transform="translate(155.39999999999998, 259) scale(1.4)" fill="rgba(11, 40, 56, 1)"></use><use xlink:href="#SvgjsG1086" transform="translate(155.39999999999998, 310.79999999999995) scale(1.4)" fill="rgba(11, 40, 56, 1)"></use><use xlink:href="#SvgjsG1087" transform="translate(155.39999999999998, 362.59999999999997) scale(1.4)" fill="rgba(11, 40, 56, 1)"></use><use xlink:href="#SvgjsG1088" transform="translate(155.39999999999998, 414.4) scale(1.4)" fill="rgba(11, 40, 56, 1)"></use><use xlink:href="#SvgjsG1083" transform="translate(155.39999999999998, 466.2) scale(1.4)" fill="rgba(11, 40, 56, 1)"></use><use xlink:href="#SvgjsG1087" transform="translate(207.2, 0) scale(1.4)" fill="rgba(11, 40, 56, 1)"></use><use xlink:href="#SvgjsG1088" transform="translate(207.2, 51.8) scale(1.4)" fill="rgba(11, 40, 56, 1)"></use><use xlink:href="#SvgjsG1083" transform="translate(207.2, 103.6) scale(1.4)" fill="rgba(11, 40, 56, 1)"></use><use xlink:href="#SvgjsG1084" transform="translate(207.2, 155.39999999999998) scale(1.4)" fill="rgba(11, 40, 56, 1)"></use><use xlink:href="#SvgjsG1085" transform="translate(207.2, 207.2) scale(1.4)" fill="rgba(11, 40, 56, 1)"></use><use xlink:href="#SvgjsG1086" transform="translate(207.2, 259) scale(1.4)" fill="rgba(11, 40, 56, 1)"></use><use xlink:href="#SvgjsG1087" transform="translate(207.2, 310.79999999999995) scale(1.4)" fill="rgba(11, 40, 56, 1)"></use><use xlink:href="#SvgjsG1088" transform="translate(207.2, 362.59999999999997) scale(1.4)" fill="rgba(11, 40, 56, 1)"></use><use xlink:href="#SvgjsG1083" transform="translate(207.2, 414.4) scale(1.4)" fill="rgba(11, 40, 56, 1)"></use><use xlink:href="#SvgjsG1084" transform="translate(207.2, 466.2) scale(1.4)" fill="rgba(11, 40, 56, 1)"></use><use xlink:href="#SvgjsG1088" transform="translate(259, 0) scale(1.4)" fill="rgba(11, 40, 56, 1)"></use><use xlink:href="#SvgjsG1083" transform="translate(259, 51.8) scale(1.4)" fill="rgba(11, 40, 56, 1)"></use><use xlink:href="#SvgjsG1084" transform="translate(259, 103.6) scale(1.4)" fill="rgba(11, 40, 56, 1)"></use><use xlink:href="#SvgjsG1085" transform="translate(259, 155.39999999999998) scale(1.4)" fill="rgba(11, 40, 56, 1)"></use><use xlink:href="#SvgjsG1086" transform="translate(259, 207.2) scale(1.4)" fill="rgba(11, 40, 56, 1)"></use><use xlink:href="#SvgjsG1087" transform="translate(259, 259) scale(1.4)" fill="rgba(11, 40, 56, 1)"></use><use xlink:href="#SvgjsG1088" transform="translate(259, 310.79999999999995) scale(1.4)" fill="rgba(11, 40, 56, 1)"></use><use xlink:href="#SvgjsG1083" transform="translate(259, 362.59999999999997) scale(1.4)" fill="rgba(11, 40, 56, 1)"></use><use xlink:href="#SvgjsG1084" transform="translate(259, 414.4) scale(1.4)" fill="rgba(11, 40, 56, 1)"></use><use xlink:href="#SvgjsG1085" transform="translate(259, 466.2) scale(1.4)" fill="rgba(11, 40, 56, 1)"></use><use xlink:href="#SvgjsG1083" transform="translate(310.79999999999995, 0) scale(1.4)" fill="rgba(11, 40, 56, 1)"></use><use xlink:href="#SvgjsG1084" transform="translate(310.79999999999995, 51.8) scale(1.4)" fill="rgba(11, 40, 56, 1)"></use><use xlink:href="#SvgjsG1085" transform="translate(310.79999999999995, 103.6) scale(1.4)" fill="rgba(11, 40, 56, 1)"></use><use xlink:href="#SvgjsG1086" transform="translate(310.79999999999995, 155.39999999999998) scale(1.4)" fill="rgba(11, 40, 56, 1)"></use><use xlink:href="#SvgjsG1087" transform="translate(310.79999999999995, 207.2) scale(1.4)" fill="rgba(11, 40, 56, 1)"></use><use xlink:href="#SvgjsG1088" transform="translate(310.79999999999995, 259) scale(1.4)" fill="rgba(11, 40, 56, 1)"></use><use xlink:href="#SvgjsG1083" transform="translate(310.79999999999995, 310.79999999999995) scale(1.4)" fill="rgba(11, 40, 56, 1)"></use><use xlink:href="#SvgjsG1084" transform="translate(310.79999999999995, 362.59999999999997) scale(1.4)" fill="rgba(11, 40, 56, 1)"></use><use xlink:href="#SvgjsG1085" transform="translate(310.79999999999995, 414.4) scale(1.4)" fill="rgba(11, 40, 56, 1)"></use><use xlink:href="#SvgjsG1086" transform="translate(310.79999999999995, 466.2) scale(1.4)" fill="rgba(11, 40, 56, 1)"></use><use xlink:href="#SvgjsG1084" transform="translate(362.59999999999997, 0) scale(1.4)" fill="rgba(11, 40, 56, 1)"></use><use xlink:href="#SvgjsG1085" transform="translate(362.59999999999997, 51.8) scale(1.4)" fill="rgba(11, 40, 56, 1)"></use><use xlink:href="#SvgjsG1086" transform="translate(362.59999999999997, 103.6) scale(1.4)" fill="rgba(11, 40, 56, 1)"></use><use xlink:href="#SvgjsG1087" transform="translate(362.59999999999997, 155.39999999999998) scale(1.4)" fill="rgba(11, 40, 56, 1)"></use><use xlink:href="#SvgjsG1088" transform="translate(362.59999999999997, 207.2) scale(1.4)" fill="rgba(11, 40, 56, 1)"></use><use xlink:href="#SvgjsG1083" transform="translate(362.59999999999997, 259) scale(1.4)" fill="rgba(11, 40, 56, 1)"></use><use xlink:href="#SvgjsG1084" transform="translate(362.59999999999997, 310.79999999999995) scale(1.4)" fill="rgba(11, 40, 56, 1)"></use><use xlink:href="#SvgjsG1085" transform="translate(362.59999999999997, 362.59999999999997) scale(1.4)" fill="rgba(11, 40, 56, 1)"></use><use xlink:href="#SvgjsG1086" transform="translate(362.59999999999997, 414.4) scale(1.4)" fill="rgba(11, 40, 56, 1)"></use><use xlink:href="#SvgjsG1087" transform="translate(362.59999999999997, 466.2) scale(1.4)" fill="rgba(11, 40, 56, 1)"></use><use xlink:href="#SvgjsG1085" transform="translate(414.4, 0) scale(1.4)" fill="rgba(11, 40, 56, 1)"></use><use xlink:href="#SvgjsG1086" transform="translate(414.4, 51.8) scale(1.4)" fill="rgba(11, 40, 56, 1)"></use><use xlink:href="#SvgjsG1087" transform="translate(414.4, 103.6) scale(1.4)" fill="rgba(11, 40, 56, 1)"></use><use xlink:href="#SvgjsG1088" transform="translate(414.4, 155.39999999999998) scale(1.4)" fill="rgba(11, 40, 56, 1)"></use><use xlink:href="#SvgjsG1083" transform="translate(414.4, 207.2) scale(1.4)" fill="rgba(11, 40, 56, 1)"></use><use xlink:href="#SvgjsG1084" transform="translate(414.4, 259) scale(1.4)" fill="rgba(11, 40, 56, 1)"></use><use xlink:href="#SvgjsG1085" transform="translate(414.4, 310.79999999999995) scale(1.4)" fill="rgba(11, 40, 56, 1)"></use><use xlink:href="#SvgjsG1086" transform="translate(414.4, 362.59999999999997) scale(1.4)" fill="rgba(11, 40, 56, 1)"></use><use xlink:href="#SvgjsG1087" transform="translate(414.4, 414.4) scale(1.4)" fill="rgba(11, 40, 56, 1)"></use><use xlink:href="#SvgjsG1088" transform="translate(414.4, 466.2) scale(1.4)" fill="rgba(11, 40, 56, 1)"></use><use xlink:href="#SvgjsG1086" transform="translate(466.2, 0) scale(1.4)" fill="rgba(11, 40, 56, 1)"></use><use xlink:href="#SvgjsG1087" transform="translate(466.2, 51.8) scale(1.4)" fill="rgba(11, 40, 56, 1)"></use><use xlink:href="#SvgjsG1088" transform="translate(466.2, 103.6) scale(1.4)" fill="rgba(11, 40, 56, 1)"></use><use xlink:href="#SvgjsG1083" transform="translate(466.2, 155.39999999999998) scale(1.4)" fill="rgba(11, 40, 56, 1)"></use><use xlink:href="#SvgjsG1084" transform="translate(466.2, 207.2) scale(1.4)" fill="rgba(11, 40, 56, 1)"></use><use xlink:href="#SvgjsG1085" transform="translate(466.2, 259) scale(1.4)" fill="rgba(11, 40, 56, 1)"></use><use xlink:href="#SvgjsG1086" transform="translate(466.2, 310.79999999999995) scale(1.4)" fill="rgba(11, 40, 56, 1)"></use><use xlink:href="#SvgjsG1087" transform="translate(466.2, 362.59999999999997) scale(1.4)" fill="rgba(11, 40, 56, 1)"></use><use xlink:href="#SvgjsG1088" transform="translate(466.2, 414.4) scale(1.4)" fill="rgba(11, 40, 56, 1)"></use><use xlink:href="#SvgjsG1083" transform="translate(466.2, 466.2) scale(1.4)" fill="rgba(11, 40, 56, 1)"></use></g></defs></svg>